<?xml version="1.0" encoding="UTF-8" standalone="no"?>
<!-- Created with Inkscape (http://www.inkscape.org/) -->

<svg
   version="1.1"
   id="svg2"
   width="560"
   height="634.66669"
   viewBox="0 0 560 634.66669"
   sodipodi:docname="ucf-knights-seeklogo.eps"
   xmlns:inkscape="http://www.inkscape.org/namespaces/inkscape"
   xmlns:sodipodi="http://sodipodi.sourceforge.net/DTD/sodipodi-0.dtd"
   xmlns="http://www.w3.org/2000/svg"
   xmlns:svg="http://www.w3.org/2000/svg">
  <defs
     id="defs6" />
  <sodipodi:namedview
     id="namedview4"
     pagecolor="#ffffff"
     bordercolor="#000000"
     borderopacity="0.25"
     inkscape:showpageshadow="2"
     inkscape:pageopacity="0.0"
     inkscape:pagecheckerboard="0"
     inkscape:deskcolor="#d1d1d1" />
  <g
     id="g8"
     inkscape:groupmode="layer"
     inkscape:label="ink_ext_XXXXXX"
     transform="matrix(1.3333333,0,0,-1.3333333,0,634.66667)">
    <g
       id="g10"
       transform="scale(0.1)">
      <path
         d="m 2109.02,3019.37 22.21,32.91 138.81,-73.76 z"
         style="fill:#ffffff;fill-opacity:1;fill-rule:evenodd;stroke:none"
         id="path12" />
      <path
         d="m 2409.84,2978.71 63.85,39.67 11.9,-34.91 z"
         style="fill:#ffffff;fill-opacity:1;fill-rule:evenodd;stroke:none"
         id="path14" />
      <path
         d="m 3763.32,2450.25 c 31.97,0 57.9,-25.93 57.9,-57.91 0,-31.98 -25.93,-57.9 -57.9,-57.9 -31.98,0 -57.91,25.92 -57.91,57.9 0,31.98 25.93,57.91 57.91,57.91"
         style="fill:#cc9866;fill-opacity:1;fill-rule:evenodd;stroke:none"
         id="path16" />
      <path
         d="m 3001.46,2146.84 c 31.98,0 57.9,-25.92 57.9,-57.89 0,-31.99 -25.92,-57.91 -57.9,-57.91 -31.98,0 -57.9,25.92 -57.9,57.91 0,31.97 25.92,57.89 57.9,57.89"
         style="fill:#cc9866;fill-opacity:1;fill-rule:evenodd;stroke:none"
         id="path18" />
      <path
         d="m 1990.82,319.391 13.53,54.824 h 298.29 l 67.66,274.125 h 262.66 l -12.77,-51.777 h -209.16 l -68.42,-277.172 h -351.79"
         style="fill:#ffffff;fill-opacity:1;fill-rule:evenodd;stroke:none"
         id="path20" />
      <path
         d="m 1749.68,374.215 -47.22,30.805 179.58,727.61 301.54,164.47 h 366.46 l 72.97,-54.82 H 2196.27 L 1929.59,1103.16 1749.68,374.215"
         style="fill:#ffffff;fill-opacity:1;fill-rule:evenodd;stroke:none"
         id="path22" />
      <path
         d="m 2489.83,1132.63 h 53.5 l -42.1,-170.567 h -53.5 l 42.1,170.567"
         style="fill:#ffffff;fill-opacity:1;fill-rule:evenodd;stroke:none"
         id="path24" />
      <path
         d="m 2988.99,1297.1 37.34,-33.27 -247.18,-1001.471 54.16,-0.449 241.97,980.37 h 622.56 155.8 l 11.1,54.82 h -514.26 -361.49"
         style="fill:#ffffff;fill-opacity:1;fill-rule:evenodd;stroke:none"
         id="path26" />
      <path
         d="m 1950.63,3353.84 c 103.91,126.91 313.1,120.32 313.1,120.32 107.26,-125.17 87.07,-386.43 87.07,-386.43 l 19.03,-0.8 c 33.31,134.05 7.14,292.69 7.14,292.69 l -5.2,40.19 c 0,0 185.21,-91.61 159.03,-324.81 l -105.84,-67.16 -69.8,-36.48 -390.25,182.43 -60.57,-109 424.64,-167.83 c 10.32,-3.35 20.63,-4.3 30.94,-0.78 l 143.37,69.6 52.75,24.88 c 0,0 -22.31,-212.92 -55.53,-317.28 0,0 -57.6,-53.23 -131.87,-87.34 0,0 -51.55,-28.16 -69.4,-36.09 -17.85,-7.93 -33.11,-3.77 -33.11,-3.77 -195.13,37.28 -377.76,232.6 -377.76,232.6 l 17.45,118.18 c 5.55,30.15 95.18,80.91 95.18,80.91 l -106.64,46.49 c 0,0 16.22,-37.77 -20.37,-82.55 -36.59,-44.78 -90.32,-8.36 -90.32,-8.36 34.9,23.8 40.06,26.86 53.52,81.4 13.46,54.54 -42.42,105 -42.42,105 17.36,8.01 51.93,-5.54 57.89,-8.91 -0.29,9.2 -1.57,121.32 97.97,242.9 z m 1947.23,-2008 c 0,-84.98 -68.9,-153.88 -153.88,-153.88 -84.99,0 -153.88,68.9 -153.88,153.88 H 2852.57 L 2975.46,1242.28 2720.61,209.742 h 361.49 l 121.04,490.379 h 410.36 l 54.33,213.207 h -412.07 l 30.59,123.932 -123.78,95.37 h 711.63 l 52.62,213.21 z M 2442.42,2551.9 c 34.03,22.49 70.84,50.58 108.21,85.35 0,0 114.02,-79.52 129.89,-82.69 2.77,-1.77 -15.78,-21.79 -47.63,-49.24 -26.04,-22.43 -60.96,-49.82 -100.39,-76.25 -89.09,-59.72 -202.3,-102.78 -272.86,-128.65 -44.82,-16.43 -44.06,-7.84 -87.32,14.63 -241.86,125.6 -366.24,276.91 -430.74,447.12 0,0 316.15,-247.17 475.08,-289.3 38.11,-10.1 42.63,-7.41 77.21,4.05 29.22,9.69 83.84,32.21 148.55,74.98 z m -32.58,426.81 63.85,39.67 11.9,-34.91 z m -57.36,568.17 c -83.28,250.65 -191.55,212.97 -236.77,219.32 -45.21,6.34 -158.64,-38.87 -212.57,-83.29 -53.94,-44.41 -117.39,-40.45 -117.39,-40.45 -125.33,-10.31 -183.23,115.81 -183.23,115.81 -31.73,-152.3 117.39,-248.67 117.39,-248.67 -33.31,-1.98 -87.05,42.24 -87.05,42.24 17.45,-123.74 118.98,-166.57 118.98,-166.57 171.04,224.55 336.31,160.22 336.31,160.22 -379.14,-74.56 -340.28,-411.66 -340.28,-411.66 -90.42,-71.39 -31.73,-172.92 -31.73,-172.92 -38.07,-139.6 -355.34,-223.67 -355.34,-223.67 -296.66,20.62 -395.011,-130.08 -395.011,-130.08 -196.707,-230.03 -103.113,-475.12 -103.113,-475.12 30.14,8.72 94.39,59.48 94.39,59.48 7.137,-28.55 26.969,-51.55 26.969,-51.55 L 671.121,1485.95 H 206.313 L 584.68,1189.73 369.863,319.391 727.832,66.5898 h 501.298 l 343.45,191.1482 255.4,-191.1482 h 511.61 L 2568.38,194.383 2536.83,66.5898 h 657.02 l 121.56,494.3402 411.64,0.203 106.92,433.222 153.26,0.247 121.27,491.348 h -257.69 l 20.62,11.74 c 0,0 50.77,209.4 30.14,280.78 -20.62,71.39 -76.94,92.8 -83.28,105.49 -6.35,12.7 -71.39,11.11 -71.39,11.11 l 25.38,9.52 c 0,0 30.14,96.77 19.04,144.36 -11.11,47.59 -133.25,182.43 -133.25,182.43 l 42.82,20.62 c 0,0 93.6,-65.04 179.27,36.49 85.66,101.53 6.34,193.54 6.34,193.54 -114.22,138.01 -239.27,17.38 -239.27,17.38 l -200.15,0.07 -791.6,1983.76 -231.02,164.39 -55.52,-278.02 c 0,0 774.08,-1847 716.64,-1804.1 -57.43,42.9 -245.49,36.09 -245.49,36.09 l 8.72,13.49 -260.78,123.99 c 25.56,91.08 44.05,344.19 44.05,344.19 l -31.33,23.39 c 33.31,314.1 -248.27,440.22 -248.27,440.22 z m 964.81,-1156.36 -751.15,1883.82 -122.84,87.14 33.31,155.47 121.36,-84.08 811.19,-2035.37 297.47,6.7 c 5.47,26.29 28.77,46.05 56.69,46.05 31.97,0 57.9,-25.93 57.9,-57.91 0,-31.98 -25.93,-57.9 -57.9,-57.9 -21.61,0 -40.44,11.83 -50.39,29.36 l -0.53,-0.35 -654.31,-262.36 c 0.84,-3.92 1.27,-7.98 1.27,-12.14 0,-31.99 -25.92,-57.91 -57.9,-57.91 -31.98,0 -57.9,25.92 -57.9,57.91 0,31.97 25.92,57.89 57.9,57.89 13.83,0 26.53,-4.84 36.49,-12.93 z m -1836.81,99.64 c 271.27,7.93 337.89,-272.86 337.89,-272.86 -14.59,-3.17 -28.62,-6.77 -42.08,-10.73 -208.92,-61.55 -283.12,-211.36 -283.12,-211.36 -119.62,22.03 -362.71,109.71 -336.31,268.09 6.39,38.35 19.62,93.59 65.82,140 45.54,45.75 123.13,82.92 257.8,86.86 z m 628.54,529.21 22.21,32.91 138.81,-73.76 z m 572.44,-676.05 c 0,0 126.11,-129.29 148.33,-267.31 0,0 -144.36,103.91 -186.4,98.36 -43.26,-23 -214.47,-58.6 -231.62,-42.83 0,0 126.83,67.23 269.69,211.78 z M 1041.58,2037.31 c 0,0 221.42,-296.37 518.07,-396.31 l 23,34.9 c 0,0 251.44,-126.91 314.1,-126.91 0,0 3.97,-45.18 28.56,-63.04 h -366.45 c 0,0 -146.74,64.62 -266.52,185.19 l 65.84,-185.19 h -256.99 c -35.49,180.32 -44.67,366.48 -59.61,551.36 z m 186.21,-691.47 h 510.64 L 1498.62,374.215 1199.68,209.742 H 766.953 L 532.516,374.215 746.766,1242.28 623.207,1345.84 H 1132.86 L 905.07,422.949 h 243.67 l 202.22,819.331 z m 614.18,803.05 c 135.96,-31.24 226.89,-62.2 342.66,-241.13 -12.33,-6.42 -24.15,-13.37 -35.44,-20.66 -91.96,-59.36 -148.58,-141.15 -148.58,-141.15 -277.62,-36.49 -442.6,68.21 -442.6,68.21 36.87,146.47 139.44,241 210.64,291.05 42.16,29.63 73.32,43.68 73.32,43.68 z m 2.57,-975.09 325.95,172.04 h 397.78 l 242.19,-170.62 -64.64,-261.892 h -358.69 l 54.13,219.302 h -392.53 l 119.62,-93.93 -151.97,-615.751 h 249.72 l 68.41,277.172 H 2693.2 L 2612.76,374.215 2315.55,209.742 h -438.34 l -230.03,164.473 z m 967.1,751.41 c 0,0 89.04,8.52 295.26,-28.75 206.23,-37.28 332.35,-172.92 332.35,-172.92 40.05,30.54 19.83,106.29 19.83,106.29 0.45,0.07 0.9,0.13 1.37,0.2 64.35,9.01 276.14,14.68 288.74,15.07 12.69,0.4 45.21,-14.28 50.76,-25.78 5.55,-11.5 -16.65,-34.9 -7.14,-36.88 9.52,-1.98 47.2,-25.78 46.8,-43.63 -0.4,-17.84 -37.08,-51.36 -37.08,-51.36 0,0 26.57,-30.93 23.79,-43.22 -2.77,-12.3 -25.37,-30.94 -28.15,-33.32 -2.78,-2.38 -11.43,-8.45 -11.43,-8.45 0,0 6.27,-5.43 16.19,-18.91 9.91,-13.49 8.72,-24.5 8.72,-30.15 0,-5.64 -20.42,-27.17 -20.42,-27.17 0,0 -172.12,-4.75 -180.06,0 -7.93,4.77 -70.99,10.72 -70.99,10.72 l -103.11,71.38 c -260.17,-69.8 -618.29,-71.78 -618.29,-71.78 54.17,132.51 49.45,233.06 32.77,298.66 -15.07,59.26 -39.91,90 -39.91,90 z m 586.16,272.66 129.29,22.21 c 0,0 9.52,3.17 24.59,-0.79 15.07,-3.97 36.49,-10.32 36.49,-10.32 0,0 13.48,-3.17 5.55,-34.9 0,0 -3.17,-8.72 23.8,-17.45 26.96,-8.72 46.8,-15.07 41.24,-42.83 -1.82,-9.13 -2.71,-17.15 -2.64,-23.84 0.12,-13.68 4.17,-21.9 12.16,-22.96 11.9,-1.58 22.31,-14.18 22.31,-14.18 0,0 11.9,-7.73 9.12,-23.99 -2.78,-16.26 -3.77,-38.47 -3.77,-38.47 0,0 48.88,-16.36 26.47,-60.39 0,0 -11.5,-19.23 -54.72,-30.14 -43.23,-10.9 -80.51,-10.7 -80.51,-10.7 0,0 -16.91,13.53 -18.39,37.13 l 63.05,41.74 -6.34,12.3 -108.47,-29.15 c 0,0 -27.96,10.7 -34.9,38.07 0,0 5.95,14.48 89.63,51.75 l -5.16,11.11 -118.58,-28.55 c 0,0 -20.23,23.79 -24.59,48.78 l 99.55,50.36 -1.99,10.71 -104.15,1.84 c 0,0 -10.32,10.08 -15.9,29.32 -2.64,9.1 -4.21,20.24 -3.14,33.34 z m -608.32,285.09 21.42,34.11 c 0,0 214.16,44.42 334.72,-86.45 0,0 2.68,-12.4 5.65,-16.37 2.98,-3.96 5.56,-22.01 -6.54,-12.29 -12.1,9.72 -92.6,75.75 -213.96,83.68 -121.36,7.93 -141.29,-2.68 -141.29,-2.68 z m -1723.05,-49.91 c 0,0 3.57,141.46 198.3,188.77 194.73,47.32 349,-58.69 360.11,-77.73 0,0 -201.3,68.2 -361.7,9.52 -160.39,-58.67 -196.71,-120.56 -196.71,-120.56 z m 950.04,-847.33 c 79.32,185.61 255.41,291.9 255.41,291.9 11.47,-3.35 12.52,-95.39 -9.33,-133.06 -21.84,-37.66 -47.76,-69.21 -75.94,-97.36 59.49,-4.37 118.18,34.9 118.18,34.9 -11.9,-54.33 -127.17,-158.24 -145.35,-175.49 -18.17,-17.25 -37.94,-20.66 -56.31,-11.9 -92.81,44.81 -86.66,91.01 -86.66,91.01 z m 1195.58,414 c -4.75,39.66 42.84,96.77 42.84,96.77 l 6.34,-34.9 113.43,-49.98 -12.7,-57.11 c -107.07,-19.03 -149.91,45.22 -149.91,45.22 z m -456.23,-148.38 -17.71,17.89 17.71,-17.89 v 0 z m -264.13,18.25 c 0,0 246.42,-0.36 264.13,-18.25 3.06,-20.88 4.7,-40.48 5.28,-58.75 3.47,-109.71 -31.65,-171.07 -31.65,-171.07 -141.99,-54.73 -291.7,-31.13 -291.7,-31.13 30.05,75.52 43.64,143.55 49.66,193.55 6.38,52.93 4.28,85.65 4.28,85.65"
         style="fill:#231f20;fill-opacity:1;fill-rule:evenodd;stroke:none"
         id="path28" />
      <path
         d="m 3244.48,867.645 h 360.89 l -13.53,-54.829 h -360.89 l 13.53,54.829"
         style="fill:#ffffff;fill-opacity:1;fill-rule:evenodd;stroke:none"
         id="path30" />
      <path
         d="m 1364.5,1297.1 h 314.22 l -14.27,-54.82 H 1454.52 L 1226.74,319.391 H 879.512 l 13.531,54.824 h 292.407 l 219.74,890.325 -40.69,32.56"
         style="fill:#ffffff;fill-opacity:1;fill-rule:evenodd;stroke:none"
         id="path32" />
      <path
         d="m 760.297,1297.1 37.742,-36.73 -211.18,-855.616 44.246,-30.539 214.247,868.065 h 210.918 l 11.9,54.82 H 760.297"
         style="fill:#ffffff;fill-opacity:1;fill-rule:evenodd;stroke:none"
         id="path34" />
      <path
         d="m 3743.98,1404.35 c 32.31,0 58.5,-26.2 58.5,-58.51 0,-32.32 -26.19,-58.51 -58.5,-58.51 -32.32,0 -58.52,26.19 -58.52,58.51 0,32.31 26.2,58.51 58.52,58.51"
         style="fill:#cc9866;fill-opacity:1;fill-rule:evenodd;stroke:none"
         id="path36" />
      <path
         d="m 2015.42,2539.97 c 0,0 -23.4,-27.37 0,-51.56 -14.28,-7.42 -27.9,-3.7 -35.52,7.3 -14.49,20.93 -5.43,57.6 35.52,44.26"
         style="fill:#231f20;fill-opacity:1;fill-rule:evenodd;stroke:none"
         id="path38" />
      <path
         d="m 2244.52,2411.78 c 0,0 -23.39,-27.37 0,-51.56 -14.27,-7.42 -27.9,-3.7 -35.52,7.3 -14.49,20.94 -5.43,57.6 35.52,44.26"
         style="fill:#231f20;fill-opacity:1;fill-rule:evenodd;stroke:none"
         id="path40" />
      <path
         d="m 2475.54,2507.2 c 0,0 -23,-27.45 0.39,-54 -15.28,-6.98 -28.91,1.87 -35.52,12.77 -14.06,23.23 -1.07,61.42 35.13,41.23"
         style="fill:#231f20;fill-opacity:1;fill-rule:evenodd;stroke:none"
         id="path42" />
      <path
         d="m 1852.66,3110.94 c 1.11,-0.63 1.22,-0.9 0.02,-0.61 0,0 -0.02,0.21 -0.02,0.61 z m 498.14,-23.21 c 0,0 20.19,261.26 -87.07,386.43 0,0 -209.19,6.59 -313.1,-120.32 -99.54,-121.58 -98.26,-233.7 -97.97,-242.9 -5.96,3.37 -40.53,16.92 -57.89,8.91 0,0 55.88,-50.46 42.42,-105 -13.46,-54.54 -18.62,-57.6 -53.52,-81.4 0,0 53.73,-36.42 90.32,8.36 36.59,44.78 20.37,82.55 20.37,82.55 L 2001,2977.87 c 0,0 -89.63,-50.76 -95.18,-80.91 l -17.45,-118.18 c 0,0 182.63,-195.32 377.76,-232.6 0,0 15.26,-4.16 33.11,3.77 17.85,7.93 69.4,36.09 69.4,36.09 l 76.55,92.4 c 0,0 24.58,27.77 33.31,73.77 8.72,46 24.79,213.57 24.79,213.57 l -143.37,-69.6 c -10.31,-3.52 -20.62,-2.57 -30.94,0.78 l -424.64,167.83 60.57,109 390.25,-182.43 69.8,36.48 c 0,0 47.99,232.01 -47.99,351.78 0,0 26.17,-158.64 -7.14,-292.69 z m -235.58,-198.5 c 3.9,-0.96 181.77,-75.38 181.77,-75.38 0,0 0.89,-37.31 -8.06,-53.11 l -174.65,107.91 z m -15.92,-81.28 183.28,-77.36 -9.51,-51.55 -173.56,112.19 z m 243.81,-123.61 8.73,44.02 115.8,60.28 0.4,-15.06 z m 22.61,128.1 117.79,58.3 -0.4,-19.83 -123.74,-83.68 6.35,45.21"
         style="fill:#cc9866;fill-opacity:1;fill-rule:evenodd;stroke:none"
         id="path44" />
      <path
         d="m 2566.14,4274.34 751.15,-1883.82 -279.34,-256.61 c 10.06,-8.18 17.33,-19.68 20.14,-32.82 l 654.31,262.36 0.53,0.35 c -2.99,5.26 -5.17,11.03 -6.39,17.14 l -0.49,-0.05 -322.03,-30.14 -797.95,1998.04 11.9,84.08 -121.36,84.08 -33.31,-155.47 122.84,-87.14"
         style="fill:#cc9866;fill-opacity:1;fill-rule:evenodd;stroke:none"
         id="path46" />
      <path
         d="m 1776.29,2206.57 c -173.55,335.29 -553.61,196.73 -553.61,196.73 -46.2,-46.41 -59.43,-101.65 -65.82,-140 -26.4,-158.38 216.69,-246.06 336.31,-268.09 0,0 74.2,149.81 283.12,211.36"
         style="fill:#cc9866;fill-opacity:1;fill-rule:evenodd;stroke:none"
         id="path48" />
      <path
         d="m 1768.65,2105.21 c -71.2,-50.05 -173.77,-144.58 -210.64,-291.05 0,0 164.98,-104.7 442.6,-68.21 0,0 56.62,81.79 148.58,141.15 -190.9,203.01 -380.54,218.11 -380.54,218.11"
         style="fill:#cc9866;fill-opacity:1;fill-rule:evenodd;stroke:none"
         id="path50" />
      <path
         d="m 2271.88,1877.62 c 0,0 -176.09,-106.29 -255.41,-291.9 0,0 -6.15,-46.2 86.66,-91.01 18.37,-8.76 38.14,-5.35 56.31,11.9 18.18,17.25 133.45,121.16 145.35,175.49 0,0 -58.69,-39.27 -118.18,-34.9 28.18,28.15 54.1,59.7 75.94,97.36 21.85,37.67 20.8,129.71 9.33,133.06"
         style="fill:#cc9866;fill-opacity:1;fill-rule:evenodd;stroke:none"
         id="path52" />
      <path
         d="m 2487.41,1783.94 c -6.02,-50 -19.61,-118.03 -49.66,-193.55 0,0 149.71,-23.6 291.7,31.13 0,0 35.12,61.36 31.65,171.07 -177.05,27.21 -273.69,-8.65 -273.69,-8.65"
         style="fill:#cc9866;fill-opacity:1;fill-rule:evenodd;stroke:none"
         id="path54" />
      <path
         d="m 2851.55,1835.21 c 16.68,-65.6 21.4,-166.15 -32.77,-298.66 0,0 358.12,1.98 618.29,71.78 l 103.11,-71.38 c 0,0 63.06,-5.95 70.99,-10.72 7.94,-4.75 180.06,0 180.06,0 0,0 20.42,21.53 20.42,27.17 0,5.65 1.19,16.66 -8.72,30.15 -9.92,13.48 -16.19,18.91 -16.19,18.91 0,0 8.65,6.07 11.43,8.45 2.78,2.38 25.38,21.02 28.15,33.32 2.78,12.29 -23.79,43.22 -23.79,43.22 -27.07,136.33 -342.08,142.58 -342.08,142.58 l -1.37,-0.2 c 0,0 20.22,-75.75 -19.83,-106.29 14.38,-23.3 -5.55,-14.27 -5.55,-14.27 -338.69,207.02 -582.15,125.94 -582.15,125.94"
         style="fill:#cc9866;fill-opacity:1;fill-rule:evenodd;stroke:none"
         id="path56" />
      <path
         d="m 3482.13,1989.21 c 6.94,-27.37 34.9,-38.07 34.9,-38.07 l 108.47,29.15 6.34,-12.3 -63.05,-41.74 c 1.48,-23.6 18.39,-37.13 18.39,-37.13 0,0 37.28,-0.2 80.51,10.7 43.22,10.91 54.72,30.14 54.72,30.14 22.41,44.03 -26.47,60.39 -26.47,60.39 0,0 0.99,22.21 3.77,38.47 2.78,16.26 -9.12,23.99 -9.12,23.99 0,0 -10.41,12.6 -22.31,14.18 -7.99,1.06 -12.04,9.28 -12.16,22.96 0,0 -92.49,57.89 -104.79,65.03 -12.29,7.15 -20.22,8.33 -20.22,8.33 l -130.17,1.22 c 5.58,-19.24 15.9,-29.32 15.9,-29.32 l 104.15,-1.84 1.99,-10.71 -99.55,-50.36 c 4.36,-24.99 24.59,-48.78 24.59,-48.78 l 118.58,28.55 5.16,-11.11 c -83.68,-37.27 -89.63,-51.75 -89.63,-51.75"
         style="fill:#cc9866;fill-opacity:1;fill-rule:evenodd;stroke:none"
         id="path58" />
      <path
         d="m 3630.16,1242.28 h -554.88 l -241.97,-980.37 -54.16,0.449 247.18,1001.471 -37.34,33.27 h 361.49 247.49 c -5.1,15.32 -7.87,31.7 -7.87,48.74 H 2852.57 L 2975.46,1242.28 2720.61,209.742 h 361.49 l 121.04,490.379 h 410.36 l 54.33,213.207 h -412.07 l 30.59,123.932 -123.78,95.37 h 711.63 l 52.62,213.21 h -28.96 c 0,-84.98 -68.9,-153.88 -153.88,-153.88 -45.1,0 -85.68,19.4 -113.82,50.32 z M 3244.48,867.645 h 360.89 l -13.53,-54.829 h -360.89 l 13.53,54.829"
         style="fill:#cc9866;fill-opacity:1;fill-rule:evenodd;stroke:none"
         id="path60" />
      <path
         d="m 2810.46,1175.22 -242.19,170.62 H 2170.49 L 1844.54,1173.8 1647.18,374.215 1877.21,209.742 h 438.34 l 297.21,164.473 80.44,325.906 H 2334.51 L 2266.1,422.949 h -249.72 l 151.97,615.751 -119.62,93.93 h 392.53 l -54.13,-219.302 h 358.69 z m -187.45,67.06 h -426.74 l -266.68,-139.12 -179.91,-728.945 -47.22,30.805 179.58,727.61 301.54,164.47 h 366.46 z m -133.18,-109.65 h 53.5 l -42.1,-170.567 h -53.5 z M 2004.35,374.215 h 298.29 l 67.66,274.125 h 262.66 l -12.77,-51.777 h -209.16 l -68.42,-277.172 h -351.79 l 13.53,54.824"
         style="fill:#cc9866;fill-opacity:1;fill-rule:evenodd;stroke:none"
         id="path62" />
      <path
         d="m 1741.58,2762.17 c 64.5,-170.21 188.88,-321.52 430.74,-447.12 43.26,-22.47 42.5,-31.06 87.32,-14.63 70.56,25.87 183.77,68.93 272.86,128.65 39.43,26.43 74.35,53.82 100.39,76.25 -48.47,27.07 -190.47,46.58 -190.47,46.58 -64.71,-42.77 -119.33,-65.29 -148.55,-74.98 -34.58,-11.46 -39.1,-14.15 -77.21,-4.05 -158.93,42.13 -475.08,289.3 -475.08,289.3 z M 2209,2367.52 c -14.49,20.94 -5.43,57.6 35.52,44.26 0,0 -23.39,-27.37 0,-51.56 -14.27,-7.42 -27.9,-3.7 -35.52,7.3 z m 266.93,85.68 c -15.28,-6.98 -28.91,1.87 -35.52,12.77 -14.06,23.23 -1.07,61.42 35.13,41.23 0,0 -23,-27.45 0.39,-54 z m -460.51,86.77 c 0,0 -23.4,-27.37 0,-51.56 -14.28,-7.42 -27.9,-3.7 -35.52,7.3 -14.49,20.93 -5.43,57.6 35.52,44.26"
         style="fill:#cc9866;fill-opacity:1;fill-rule:evenodd;stroke:none"
         id="path64" />
      <path
         d="m 2681.46,2343.32 c -142.86,-144.55 -269.69,-211.78 -269.69,-211.78 17.15,-15.77 188.36,19.83 231.62,42.83 42.04,5.55 186.4,-98.36 186.4,-98.36 -22.22,138.02 -148.33,267.31 -148.33,267.31"
         style="fill:#cc9866;fill-opacity:1;fill-rule:evenodd;stroke:none"
         id="path66" />
      <path
         d="m 3254.89,2096.49 c 0,0 -47.59,-57.11 -42.84,-96.77 0,0 42.84,-64.25 149.91,-45.22 l 12.7,57.11 -113.43,49.98 -6.34,34.9"
         style="fill:#cc9866;fill-opacity:1;fill-rule:evenodd;stroke:none"
         id="path68" />
      <path
         d="m 1559.65,1641 c -296.65,99.94 -518.07,396.31 -518.07,396.31 14.94,-184.88 24.12,-371.04 59.61,-551.36 h 256.99 l -65.84,185.19 c 119.78,-120.57 266.52,-185.19 266.52,-185.19 h 366.45 c -24.59,17.86 -28.56,63.04 -28.56,63.04 -62.66,0 -314.1,126.91 -314.1,126.91 l -23,-34.9"
         style="fill:#cc9866;fill-opacity:1;fill-rule:evenodd;stroke:none"
         id="path70" />
      <path
         d="M 1664.45,1242.28 H 1454.52 L 1226.74,319.391 H 879.512 l 13.531,54.824 h 292.407 l 219.74,890.325 -40.69,32.56 h 314.22 z m 73.98,103.56 H 1227.79 L 1350.96,1242.28 1148.74,422.949 H 905.07 l 227.79,922.891 H 623.207 L 746.766,1242.28 532.516,374.215 766.953,209.742 h 432.727 l 298.94,164.473 z M 1056.27,1242.28 H 845.352 l -214.247,-868.065 -44.246,30.539 211.18,855.616 -37.742,36.73 h 307.873 l -11.9,-54.82"
         style="fill:#cc9866;fill-opacity:1;fill-rule:evenodd;stroke:none"
         id="path72" />
      <path
         d="m 1559.56,3593.38 c 6.35,-188.78 157.85,-268.89 157.85,-268.89 -34.91,-53.94 -36.49,-179.26 -36.49,-179.26 -61.87,-53.94 -31.73,-169.75 -31.73,-169.75 -41.25,-99.94 -306.96,-175.29 -306.96,-175.29 -333.14,28.56 -453.707,-177.67 -453.707,-177.67 -215.746,-272.86 -72.972,-583.79 -72.972,-583.79 l 66.629,19.04 -241.129,-498.72 H 3.32813 L 502.48,1165.23 287.574,294.492 693.602,2.625 H 1253.59 L 1566.9,172.164 1801.68,2.625 h 556.82 l 104.3,52.5469 -7.93,-52.5469 h 793.38 l 98.36,397.383 22.21,90.027 h 177.27 236.64 l 96.5,423.293 h 158.07 l 159.37,645.722 h -246.05 c 88.84,316.76 -101.53,379.34 -101.53,379.34 50.77,136.43 -51.55,230.72 -51.55,230.72 110.21,32.77 175.11,81.13 182.82,213.23 9.24,158.37 -165.19,318.83 -353.36,181.09 h -136.43 l -785.25,1971.86 -329.97,222.09 -85.66,-396.6 682.14,-1699 -103.85,2.96 -211.05,110.46 c 31.73,36.49 41.25,339.49 41.25,339.49 l -28.55,20.62 c 14.27,309.34 -262.55,464.01 -262.55,464.01 -47.3,170.12 -167.67,239.16 -283.49,238.29 -138.83,-1.04 -225.05,-100.3 -318.88,-125.59 -18.88,-5.09 -46.88,0.93 -85,11.55 -109.92,30.65 -137.54,281.87 -137.54,281.87 -118.98,-253.82 -22.61,-412.06 -22.61,-412.06 z M 1360.8,2737.24 c 0,0 317.27,84.07 355.34,223.67 0,0 -58.69,101.53 31.73,172.92 0,0 -38.86,337.1 340.28,411.66 0,0 -165.27,64.33 -336.31,-160.22 0,0 -101.53,42.83 -118.98,166.57 0,0 53.74,-44.22 87.05,-42.24 0,0 -149.12,96.37 -117.39,248.67 0,0 57.9,-126.12 183.23,-115.81 0,0 63.45,-3.96 117.39,40.45 53.93,44.42 167.36,89.63 212.57,83.29 45.22,-6.35 153.49,31.33 236.77,-219.32 0,0 281.58,-126.12 248.27,-440.22 l 31.33,-23.39 c 0,0 -18.49,-253.11 -44.05,-344.19 l 260.78,-123.99 -8.72,-13.49 c 0,0 188.06,6.81 245.49,-36.09 57.44,-42.9 -716.64,1804.1 -716.64,1804.1 l 55.52,278.02 231.02,-164.39 791.6,-1983.76 200.15,-0.07 c 0,0 125.05,120.63 239.27,-17.38 0,0 79.32,-92.01 -6.34,-193.54 C 3794.49,2186.96 3700.89,2252 3700.89,2252 l -42.82,-20.62 c 0,0 122.14,-134.84 133.25,-182.43 11.1,-47.59 -19.04,-144.36 -19.04,-144.36 l -25.38,-9.52 c 0,0 65.04,1.59 71.39,-11.11 6.34,-12.69 62.66,-34.1 83.28,-105.49 20.63,-71.38 -30.14,-280.78 -30.14,-280.78 l -20.62,-11.74 H 4108.5 L 3987.23,994.602 3833.97,994.355 3727.05,561.133 3315.41,560.93 3193.85,66.5898 H 2536.83 L 2568.38,194.383 2339.59,66.5898 H 1827.98 L 1572.58,257.738 1229.13,66.5898 H 727.832 L 369.863,319.391 584.68,1189.73 206.313,1485.95 h 464.808 l 312.914,654.02 c 0,0 -19.832,23 -26.969,51.55 0,0 -64.25,-50.76 -94.39,-59.48 0,0 -93.594,245.09 103.113,475.12 0,0 98.351,150.7 395.011,130.08"
         style="fill:#bdbbbc;fill-opacity:1;fill-rule:evenodd;stroke:none"
         id="path74" />
      <path
         d="m 2376.97,3379.62 c 95.98,-119.77 47.99,-351.78 47.99,-351.78 L 2530.8,3095 c 26.18,233.2 -159.03,324.81 -159.03,324.81 l 5.2,-40.19"
         style="fill:#ffffff;fill-opacity:1;fill-rule:evenodd;stroke:none"
         id="path76" />
      <path
         d="m 2503.29,2965.78 c 0,0 -16.07,-167.57 -24.79,-213.57 -8.73,-46 -33.31,-73.77 -33.31,-73.77 l -76.55,-92.4 c 74.27,34.11 131.87,87.34 131.87,87.34 33.22,104.36 55.53,317.28 55.53,317.28 l -52.75,-24.88"
         style="fill:#ffffff;fill-opacity:1;fill-rule:evenodd;stroke:none"
         id="path78" />
      <path
         d="m 2483.51,2870.74 -117.79,-58.3 -6.35,-45.21 123.74,83.68 0.4,19.83"
         style="fill:#231f20;fill-opacity:1;fill-rule:evenodd;stroke:none"
         id="path80" />
      <path
         d="m 2288.93,2760.74 c 8.95,15.8 8.06,53.11 8.06,53.11 0,0 -177.87,74.42 -181.77,75.38 l -0.94,-20.58 174.65,-107.91"
         style="fill:#231f20;fill-opacity:1;fill-rule:evenodd;stroke:none"
         id="path82" />
      <path
         d="m 2282.58,2730.59 -183.28,77.36 0.21,-16.72 173.56,-112.19 9.51,51.55"
         style="fill:#231f20;fill-opacity:1;fill-rule:evenodd;stroke:none"
         id="path84" />
      <path
         d="m 2351.84,2728.36 -8.73,-44.02 124.93,89.24 -0.4,15.06 -115.8,-60.28"
         style="fill:#231f20;fill-opacity:1;fill-rule:evenodd;stroke:none"
         id="path86" />
      <path
         d="m 2550.63,2637.25 c -37.37,-34.77 -74.18,-62.86 -108.21,-85.35 0,0 142,-19.51 190.47,-46.58 31.85,27.45 50.4,47.47 47.63,49.24 -15.87,3.17 -129.89,82.69 -129.89,82.69"
         style="fill:#ffffff;fill-opacity:1;fill-rule:evenodd;stroke:none"
         id="path88" />
      <path
         d="m 3145.62,2430.62 c -120.56,130.87 -334.72,86.45 -334.72,86.45 l -21.42,-34.11 c 0,0 19.93,10.61 141.29,2.68 121.36,-7.93 201.86,-73.96 213.96,-83.68 12.1,-9.72 9.52,8.33 6.54,12.29 -2.97,3.97 -5.65,16.37 -5.65,16.37"
         style="fill:#ffffff;fill-opacity:1;fill-rule:evenodd;stroke:none"
         id="path90" />
      <path
         d="m 2586.07,4348.79 797.95,-1998.04 322.03,30.14 0.49,0.05 c -0.74,3.69 -1.13,7.5 -1.13,11.4 0,4.07 0.42,8.03 1.22,11.86 l -297.47,-6.7 -811.19,2035.37 -11.9,-84.08"
         style="fill:#ffffff;fill-opacity:1;fill-rule:evenodd;stroke:none"
         id="path92" />
      <path
         d="m 3551.68,2219.29 c -15.07,3.96 -24.59,0.79 -24.59,0.79 l -129.29,-22.21 c -1.07,-13.1 0.5,-24.24 3.14,-33.34 l 130.17,-1.22 c 0,0 7.93,-1.18 20.22,-8.33 12.3,-7.14 104.79,-65.03 104.79,-65.03 -0.07,6.69 0.82,14.71 2.64,23.84 5.56,27.76 -14.28,34.11 -41.24,42.83 -26.97,8.73 -23.8,17.45 -23.8,17.45 7.93,31.73 -5.55,34.9 -5.55,34.9 0,0 -21.42,6.35 -36.49,10.32"
         style="fill:#ffffff;fill-opacity:1;fill-rule:evenodd;stroke:none"
         id="path94" />
      <path
         d="m 3749.19,1845.1 c -12.6,-0.39 -224.39,-6.06 -288.74,-15.07 0,0 315.01,-6.25 342.08,-142.58 0,0 36.68,33.52 37.08,51.36 0.4,17.85 -37.28,41.65 -46.8,43.63 -9.51,1.98 12.69,25.38 7.14,36.88 -5.55,11.5 -38.07,26.18 -50.76,25.78"
         style="fill:#ffffff;fill-opacity:1;fill-rule:evenodd;stroke:none"
         id="path96" />
      <path
         d="m 3439.25,1723.54 c 0,0 -126.12,135.64 -332.35,172.92 -206.22,37.27 -295.26,28.75 -295.26,28.75 0,0 24.84,-30.74 39.91,-90 0,0 243.46,81.08 582.15,-125.94 0,0 19.93,-9.03 5.55,14.27"
         style="fill:#ffffff;fill-opacity:1;fill-rule:evenodd;stroke:none"
         id="path98" />
      <path
         d="m 2761.1,1792.59 c -0.58,18.27 -2.22,37.87 -5.28,58.75 -17.71,17.89 -264.13,18.25 -264.13,18.25 0,0 2.1,-32.72 -4.28,-85.65 0,0 96.64,35.86 273.69,8.65"
         style="fill:#ffffff;fill-opacity:1;fill-rule:evenodd;stroke:none"
         id="path100" />
      <path
         d="m 2184.63,1907.76 c -115.77,178.93 -206.7,209.89 -342.66,241.13 0,0 -31.16,-14.05 -73.32,-43.68 0,0 189.64,-15.1 380.54,-218.11 11.29,7.29 23.11,14.24 35.44,20.66"
         style="fill:#ffffff;fill-opacity:1;fill-rule:evenodd;stroke:none"
         id="path102" />
      <path
         d="m 1818.37,2217.3 c 0,0 -66.62,280.79 -337.89,272.86 -134.67,-3.94 -212.26,-41.11 -257.8,-86.86 0,0 380.06,138.56 553.61,-196.73 13.46,3.96 27.49,7.56 42.08,10.73"
         style="fill:#ffffff;fill-opacity:1;fill-rule:evenodd;stroke:none"
         id="path104" />
      <path
         d="m 1263.14,2553.61 c 160.4,58.68 361.7,-9.52 361.7,-9.52 -11.11,19.04 -165.38,125.05 -360.11,77.73 -194.73,-47.31 -198.3,-188.77 -198.3,-188.77 0,0 36.32,61.89 196.71,120.56"
         style="fill:#ffffff;fill-opacity:1;fill-rule:evenodd;stroke:none"
         id="path106" />
    </g>
  </g>
</svg>
